<svg width="14" height="14" viewBox="0 0 14 14" fill="none" xmlns="http://www.w3.org/2000/svg">
<path d="M10.4782 0.500244H3.63577C1.74542 0.500244 0.207581 2.03854 0.207581 3.92945V10.1911C0.207581 12.082 1.74542 13.6203 3.63577 13.6203H10.4782C12.3686 13.6203 13.9064 12.082 13.9064 10.1911V3.92945C13.9064 2.03854 12.3686 0.500244 10.4782 0.500244ZM1.41694 3.92945C1.41694 2.70578 2.41247 1.70996 3.63577 1.70996H10.4782C11.7015 1.70996 12.697 2.70578 12.697 3.92945V10.1911C12.697 11.4148 11.7015 12.4106 10.4782 12.4106H3.63577C2.41247 12.4106 1.41694 11.4148 1.41694 10.1911V3.92945Z" fill="#848484"/>
<path d="M7.05703 10.2493C8.8149 10.2493 10.2458 8.81877 10.2458 7.05961C10.2458 5.30045 8.81567 3.86987 7.05703 3.86987C5.29838 3.86987 3.86823 5.30045 3.86823 7.05961C3.86823 8.81877 5.29838 10.2493 7.05703 10.2493ZM7.05703 5.08036C8.14862 5.08036 9.03647 5.96847 9.03647 7.06038C9.03647 8.1523 8.14862 9.04041 7.05703 9.04041C5.96543 9.04041 5.07758 8.1523 5.07758 7.06038C5.07758 5.96847 5.96543 5.08036 7.05703 5.08036Z" fill="#848484"/>
<path d="M10.541 4.38513C11.0144 4.38513 11.4002 3.99997 11.4002 3.52569C11.4002 3.05142 11.0151 2.66626 10.541 2.66626C10.0669 2.66626 9.68182 3.05142 9.68182 3.52569C9.68182 3.99997 10.0669 4.38513 10.541 4.38513Z" fill="#848484"/>
</svg>
