<svg width="332" height="54" viewBox="0 0 332 54" fill="none" xmlns="http://www.w3.org/2000/svg">
<path fill-rule="evenodd" clip-rule="evenodd" d="M48.2747 13.7767C48.6342 13.7767 48.994 13.7767 49.3535 13.7767C56.9968 14.4481 61.5365 18.5646 62.9729 26.1263C63.1077 34.9854 63.1527 43.8448 63.1077 52.7049C59.9612 52.7049 56.815 52.7049 53.6685 52.7049C53.795 44.548 53.6602 36.4043 53.264 28.2741C51.3578 23.276 47.8068 21.5309 42.6112 23.0389C38.9728 24.7717 37.1297 27.6801 37.0825 31.7642C36.9477 38.7439 36.9026 45.7241 36.9477 52.7049C33.8012 52.7049 30.655 52.7049 27.5085 52.7049C27.5085 39.9973 27.5085 27.2897 27.5085 14.5821C30.655 14.5821 33.8012 14.5821 36.9477 14.5821C36.9029 16.3742 36.9477 18.164 37.0825 19.9515C39.7055 15.8943 43.4362 13.836 48.2747 13.7767Z" fill="#FEFFFE"/>
<path fill-rule="evenodd" clip-rule="evenodd" d="M0 14.5821C3.1464 14.5821 6.29278 14.5821 9.43918 14.5821C9.39433 16.5529 9.43927 18.5217 9.57403 20.4885C10.8848 17.393 13.1771 15.469 16.4512 14.7164C18.8767 14.5822 21.3039 14.5374 23.7328 14.5821C23.7328 17.2668 23.7328 19.9515 23.7328 22.6362C20.749 22.5272 17.7824 22.6614 14.833 23.0389C12.2495 24.3624 10.6763 26.4654 10.1134 29.348C9.83763 31.0375 9.65782 32.7378 9.57403 34.4489C9.43919 40.5336 9.39425 46.619 9.43918 52.7049C6.29278 52.7049 3.1464 52.7049 0 52.7049C0 39.9973 0 27.2897 0 14.5821Z" fill="#FEFFFE"/>
<path fill-rule="evenodd" clip-rule="evenodd" d="M86.8405 52.7049C83.9637 52.7049 81.0872 52.7049 78.2104 52.7049C74.2206 40.0736 70.1752 27.0528 66.0743 14.4479C69.3106 14.4479 72.5469 14.4479 75.7832 14.4479C79.0551 27.3004 82.7407 40.1423 86.8405 52.7049Z" fill="#FEFFFE"/>
<path fill-rule="evenodd" clip-rule="evenodd" d="M89.8071 14.4479C92.5938 14.4479 95.3808 14.4479 98.1675 14.4479C96.256 21.9712 94.0537 29.5331 91.5601 36.8652C90.1132 32.2754 88.7197 27.6667 87.3799 23.0389C88.295 20.2449 89.104 17.2918 89.8071 14.4479Z" fill="#D8FA2D"/>
<path fill-rule="evenodd" clip-rule="evenodd" d="M122.44 14.4479C122.44 14.0899 122.44 14.8059 122.44 14.4479C118.33 26.7225 114.374 40.2802 110.573 52.7049C107.607 52.7049 104.64 52.7049 101.674 52.7049C100.928 49.7831 100.119 46.8748 99.2463 43.9796C100.487 39.3536 101.79 34.7449 103.157 30.1534C104.196 33.1677 105.185 36.2103 106.123 39.2814C108.371 31.1378 110.753 22.5915 113.001 14.4479C116.237 14.4479 119.203 14.4479 122.44 14.4479Z" fill="#FEFFFE"/>
<path d="M140.158 53.4362C131.625 53.4362 126.011 48.7344 125.412 40.9727H130.128C130.652 46.2716 134.17 49.1076 140.158 49.1076C145.397 49.1076 148.84 46.1223 148.84 42.6892C148.84 30.375 126.311 41.2712 126.311 24.9269C126.311 18.6579 131.55 14.6278 139.634 14.6278C147.643 14.6278 153.107 19.1057 153.556 25.8971H148.84C148.242 20.5983 142.927 18.9564 139.334 18.9564C134.469 18.9564 131.251 21.3446 131.251 24.9269C131.251 35.8231 153.781 25.3747 153.781 42.6892C153.781 49.2568 148.316 53.4362 140.158 53.4362Z" fill="#3F3F3F"/>
<path d="M166.192 2.91063H170.908V15.2248H182.884V19.5535H170.908V41.5698C170.908 45.8984 173.378 48.5105 177.195 48.5105H182.884V52.8391H177.27C170.459 52.8391 166.192 48.5105 166.192 41.5698V19.5535H158.108V15.2248H166.192V2.91063Z" fill="#3F3F3F"/>
<path d="M221.893 15.2248V52.8391H217.177V45.0028C215.231 50.6748 210.441 53.4362 204.453 53.4362C195.92 53.4362 190.381 47.391 190.381 38.0621V15.2248H195.097V37.465C195.097 44.4804 199.064 49.1076 205.126 49.1076C212.162 49.1076 217.177 43.4356 217.177 35.45V15.2248H221.893Z" fill="#3F3F3F"/>
<path d="M249.746 53.4362C237.77 53.4362 231.408 44.7789 231.408 34.032C231.408 23.285 237.77 14.6278 249.746 14.6278C255.285 14.6278 260.525 17.613 262.845 22.0163V0H267.561V52.8391H262.845V46.0477C260.525 50.4509 255.285 53.4362 249.746 53.4362ZM236.423 34.032C236.423 43.137 241.737 49.1076 249.896 49.1076C258.055 49.1076 263.369 43.137 263.369 34.032C263.369 24.9269 258.055 18.9564 249.896 18.9564C241.737 18.9564 236.423 24.9269 236.423 34.032Z" fill="#3F3F3F"/>
<path d="M279.862 52.8391V15.2248H284.578V52.8391H279.862ZM279.338 7.61242V0H285.027V7.61242H279.338Z" fill="#3F3F3F"/>
<path d="M312.988 53.4362C301.91 53.4362 293.976 45.376 293.976 34.032C293.976 22.688 301.91 14.6278 312.988 14.6278C324.066 14.6278 332 22.688 332 34.032C332 45.376 324.066 53.4362 312.988 53.4362ZM298.916 34.032C298.916 42.8385 304.605 49.1076 312.988 49.1076C321.371 49.1076 327.06 42.8385 327.06 34.032C327.06 25.2255 321.371 18.9564 312.988 18.9564C304.605 18.9564 298.916 25.2255 298.916 34.032Z" fill="#3F3F3F"/>
</svg>
