<svg width="336" height="55" viewBox="0 0 336 55" fill="none" xmlns="http://www.w3.org/2000/svg">
<path fill-rule="evenodd" clip-rule="evenodd" d="M48.8563 14.2542C49.2201 14.2542 49.5842 14.2542 49.9481 14.2542C57.6835 14.9337 62.2779 19.0998 63.7316 26.7526C63.868 35.7184 63.9136 44.6846 63.868 53.6514C60.6836 53.6514 57.4995 53.6514 54.3151 53.6514C54.4431 45.3962 54.3067 37.1544 53.9057 28.9263C51.9766 23.868 48.3828 22.1019 43.1246 23.628C39.4423 25.3817 37.5771 28.3252 37.5293 32.4584C37.3928 39.5222 37.3472 46.5866 37.3928 53.6514C34.2084 53.6514 31.0243 53.6514 27.8399 53.6514C27.8399 40.7907 27.8399 27.93 27.8399 15.0693C31.0243 15.0693 34.2084 15.0693 37.3928 15.0693C37.3475 16.883 37.3928 18.6943 37.5293 20.5034C40.1839 16.3973 43.9595 14.3143 48.8563 14.2542Z" fill="#FEFFFE"/>
<path fill-rule="evenodd" clip-rule="evenodd" d="M0 15.0693C3.18431 15.0693 6.3686 15.0693 9.55291 15.0693C9.50752 17.0639 9.55299 19.0564 9.68938 21.0468C11.0159 17.9141 13.3359 15.9669 16.6494 15.2052C19.1041 15.0694 21.5606 15.0241 24.0187 15.0693C24.0187 17.7864 24.0187 20.5034 24.0187 23.2205C20.999 23.1101 17.9967 23.246 15.0117 23.628C12.3971 24.9674 10.8049 27.0958 10.2353 30.0131C9.95615 31.7229 9.77418 33.4437 9.68938 35.1755C9.55291 41.3335 9.50744 47.4921 9.55291 53.6514C6.3686 53.6514 3.18431 53.6514 0 53.6514C0 40.7907 0 27.93 0 15.0693Z" fill="#FEFFFE"/>
<path fill-rule="evenodd" clip-rule="evenodd" d="M87.8868 53.6514C84.9753 53.6514 82.0641 53.6514 79.1527 53.6514C75.1148 40.8679 71.0207 27.6902 66.8704 14.9335C70.1457 14.9335 73.4209 14.9335 76.6962 14.9335C80.0075 27.9409 83.7375 40.9374 87.8868 53.6514Z" fill="#FEFFFE"/>
<path fill-rule="evenodd" clip-rule="evenodd" d="M90.8891 14.9335C93.7094 14.9335 96.53 14.9335 99.3503 14.9335C97.4157 22.5474 95.1868 30.2005 92.6632 37.6208C91.1989 32.9758 89.7886 28.3115 88.4327 23.628C89.3587 20.8004 90.1776 17.8116 90.8891 14.9335Z" fill="#D8FA2D"/>
<path fill-rule="evenodd" clip-rule="evenodd" d="M123.915 14.9335C123.915 14.5712 123.915 15.2958 123.915 14.9335C119.756 27.356 115.752 41.0771 111.906 53.6514C108.903 53.6514 105.901 53.6514 102.898 53.6514C102.144 50.6945 101.326 47.7511 100.442 44.821C101.697 40.1393 103.017 35.475 104.4 30.8282C105.451 33.8788 106.452 36.9581 107.402 40.0662C109.676 31.8245 112.088 23.1752 114.362 14.9335C117.637 14.9335 120.64 14.9335 123.915 14.9335Z" fill="#FEFFFE"/>
<path d="M141.846 54.3915C133.211 54.3915 127.529 49.6331 126.923 41.7779H131.696C132.226 47.1406 135.786 50.0107 141.846 50.0107C147.149 50.0107 150.634 46.9895 150.634 43.5151C150.634 31.0525 127.832 42.08 127.832 25.5388C127.832 19.1942 133.135 15.1155 141.316 15.1155C149.422 15.1155 154.952 19.6474 155.406 26.5207H150.634C150.028 21.158 144.649 19.4963 141.013 19.4963C136.089 19.4963 132.832 21.9133 132.832 25.5388C132.832 36.5663 155.633 25.992 155.633 43.5151C155.633 50.1618 150.103 54.3915 141.846 54.3915Z" fill="#3F3F3F"/>
<path d="M168.194 3.25722H172.967V15.7198H185.087V20.1006H172.967V42.3821C172.967 46.7629 175.467 49.4065 179.33 49.4065H185.087V53.7873H179.406C172.512 53.7873 168.194 49.4065 168.194 42.3821V20.1006H160.013V15.7198H168.194V3.25722Z" fill="#3F3F3F"/>
<path d="M224.566 15.7198V53.7873H219.794V45.8565C217.824 51.5969 212.976 54.3915 206.916 54.3915C198.28 54.3915 192.675 48.2735 192.675 38.8322V15.7198H197.447V38.2279C197.447 45.3278 201.462 50.0107 207.598 50.0107C214.718 50.0107 219.794 44.2704 219.794 36.1886V15.7198H224.566Z" fill="#3F3F3F"/>
<path d="M252.755 54.3915C240.635 54.3915 234.196 45.63 234.196 34.7535C234.196 23.8771 240.635 15.1155 252.755 15.1155C258.361 15.1155 263.664 18.1368 266.012 22.5931V0.311523H270.784V53.7873H266.012V46.914C263.664 51.3703 258.361 54.3915 252.755 54.3915ZM239.272 34.7535C239.272 43.9683 244.65 50.0107 252.907 50.0107C261.164 50.0107 266.542 43.9683 266.542 34.7535C266.542 25.5388 261.164 19.4963 252.907 19.4963C244.65 19.4963 239.272 25.5388 239.272 34.7535Z" fill="#3F3F3F"/>
<path d="M283.234 53.7873V15.7198H288.007V53.7873H283.234ZM282.704 8.01566V0.311523H288.461V8.01566H282.704Z" fill="#3F3F3F"/>
<path d="M316.759 54.3915C305.548 54.3915 297.518 46.2342 297.518 34.7535C297.518 23.2729 305.548 15.1155 316.759 15.1155C327.97 15.1155 336 23.2729 336 34.7535C336 46.2342 327.97 54.3915 316.759 54.3915ZM302.518 34.7535C302.518 43.6662 308.275 50.0107 316.759 50.0107C325.243 50.0107 331 43.6662 331 34.7535C331 25.8409 325.243 19.4963 316.759 19.4963C308.275 19.4963 302.518 25.8409 302.518 34.7535Z" fill="#3F3F3F"/>
</svg>
