<svg width="60" height="41" viewBox="0 0 60 41" fill="none" xmlns="http://www.w3.org/2000/svg">
<path opacity="0.964" fill-rule="evenodd" clip-rule="evenodd" d="M22.1053 40.8945C19.043 40.8945 15.981 40.8945 12.9187 40.8945C8.49818 27.3652 4.19196 13.7965 0 0.188232C3.44497 0.188232 6.88995 0.188232 10.3349 0.188232C12.5889 8.63024 14.426 15.9867 16.816 23.9534C18.4011 29.2372 20.1624 34.8733 22.1053 40.8945Z" fill="#D8FA2D"/>
<path opacity="0.933" fill-rule="evenodd" clip-rule="evenodd" d="M25.2632 0.18826C28.2643 0.188261 31.2585 0.176112 34.2527 0.18826C32.0341 8.19065 29.5039 16.4084 26.8421 24.268C25.4248 19.3058 24.0373 14.3369 22.6794 9.3615C23.5415 6.30025 24.4028 3.24249 25.2632 0.18826Z" fill="#D8F92E"/>
<path opacity="0.967" fill-rule="evenodd" clip-rule="evenodd" d="M60 0.18822C60 -0.0984437 60 0.474884 60 0.18822C55.6438 13.4296 51.3376 27.5717 47.0813 40.8945C44.019 40.8945 40.957 40.8945 37.8947 40.8945C36.9973 37.6323 36.0402 34.3832 35.0239 31.1479C36.5076 26.1775 37.9906 21.2086 39.4737 16.2414C40.3456 19.6285 41.3503 22.9729 42.488 26.2746C45.0568 17.6246 47.4491 8.92918 49.6651 0.18822C53.11 0.18822 56.555 0.18822 60 0.18822Z" fill="#FEFFFE"/>
</svg>
