<svg width="16" height="14" viewBox="0 0 16 14" fill="none" xmlns="http://www.w3.org/2000/svg">
<path d="M10.0689 10.3552C7.27434 10.3552 5.00076 8.08017 5 5.28481C5.00076 4.57622 5.57758 4 6.28443 4C6.35711 4 6.42901 4.00612 6.49786 4.01836C6.64933 4.04362 6.79316 4.09489 6.9255 4.17218C6.94463 4.18365 6.95763 4.20202 6.96069 4.22345L7.25598 6.08523C7.2598 6.10666 7.25292 6.12885 7.23838 6.14492C7.07544 6.32551 6.86736 6.4556 6.63556 6.52064L6.52388 6.55202L6.56595 6.65991C6.94692 7.63022 7.72263 8.40539 8.69341 8.788L8.80128 8.83085L8.83263 8.71913C8.89766 8.48727 9.02771 8.27913 9.20825 8.11613C9.22125 8.10389 9.23885 8.09776 9.25645 8.09776C9.26027 8.09776 9.2641 8.09777 9.26869 8.09853L11.1299 8.39391C11.1521 8.39774 11.1705 8.40998 11.1819 8.42911C11.2584 8.56149 11.3097 8.70612 11.3357 8.85764C11.348 8.92497 11.3533 8.99614 11.3533 9.07036C11.3533 9.77819 10.7773 10.3544 10.0689 10.3552Z" fill="#848484"/>
<path d="M15.0011 6.30721C14.8504 4.60383 14.0701 3.02364 12.8041 1.85821C11.5304 0.685888 9.87795 0.0400391 8.14983 0.0400391C4.35697 0.0400391 1.27098 3.12694 1.27098 6.92092C1.27098 8.19425 1.6221 9.43468 2.28689 10.5152L0.804321 13.798L5.55113 13.2922C6.37656 13.6304 7.25019 13.8018 8.14906 13.8018C8.38544 13.8018 8.62795 13.7896 8.87122 13.7643C9.08542 13.7413 9.30192 13.7077 9.51459 13.6648C12.6909 13.0228 15.0096 10.203 15.0279 6.95765V6.92092C15.0279 6.71431 15.0187 6.5077 15.0004 6.30797L15.0011 6.30721ZM5.73397 11.8512L3.10774 12.1313L3.89186 10.3935L3.73503 10.1831C3.72355 10.1678 3.71208 10.1525 3.69908 10.1349C3.01823 9.19439 2.65867 8.08329 2.65867 6.92168C2.65867 3.89293 5.12197 1.42892 8.14983 1.42892C10.9864 1.42892 13.3908 3.64271 13.6226 6.46867C13.6349 6.62019 13.6417 6.77247 13.6417 6.92245C13.6417 6.9653 13.641 7.00739 13.6402 7.05254C13.5821 9.58619 11.8126 11.738 9.3371 12.2859C9.14815 12.328 8.9546 12.3601 8.76182 12.3808C8.56139 12.4037 8.35561 12.4152 8.15136 12.4152C7.42384 12.4152 6.71699 12.2744 6.04915 11.9959C5.97494 11.966 5.90226 11.9339 5.83418 11.901L5.73473 11.8528L5.73397 11.8512Z" fill="#848484"/>
</svg>
