<svg width="20" height="20" viewBox="0 0 20 20" fill="none" xmlns="http://www.w3.org/2000/svg">
<path d="M13.1274 13.9361C9.19798 13.9361 6.00108 10.7372 6 6.80659C6.00108 5.81023 6.81214 5 7.80606 5C7.90825 5 8.00936 5.00861 8.10617 5.02582C8.31915 5.06133 8.52139 5.13342 8.70748 5.2421C8.73437 5.25824 8.75265 5.28407 8.75696 5.31419L9.17216 7.93208C9.17754 7.96221 9.16786 7.99341 9.14743 8.01601C8.91831 8.26994 8.62572 8.45286 8.29979 8.54432L8.14275 8.58844L8.2019 8.74015C8.73759 10.1045 9.82833 11.1945 11.1934 11.7325L11.345 11.7927L11.3891 11.6356C11.4806 11.3096 11.6634 11.017 11.9173 10.7878C11.9356 10.7705 11.9603 10.7619 11.9851 10.7619C11.9904 10.7619 11.9958 10.7619 12.0023 10.763L14.6194 11.1784C14.6506 11.1837 14.6764 11.2009 14.6925 11.2278C14.8001 11.414 14.8722 11.6174 14.9087 11.8304C14.926 11.9251 14.9335 12.0252 14.9335 12.1295C14.9335 13.1248 14.1235 13.935 13.1274 13.9361Z" fill="#050505"/>
<path d="M19.9624 8.81237C19.7505 6.41722 18.6533 4.19529 16.873 2.55656C15.082 0.908138 12.7586 0 10.3286 0C4.99542 0 0.656157 4.34055 0.656157 9.67531C0.656157 11.4658 1.14988 13.21 2.08464 14.7293L-1.52588e-05 19.3453L6.67455 18.634C7.83521 19.1096 9.06362 19.3506 10.3275 19.3506C10.6599 19.3506 11.0009 19.3334 11.343 19.2979C11.6442 19.2656 11.9486 19.2183 12.2476 19.158C16.7138 18.2553 19.9742 14.2902 20 9.72697V9.67531C20 9.3848 19.9871 9.09428 19.9613 8.81344L19.9624 8.81237ZM6.93164 16.6079L3.23885 17.0017L4.34142 14.5582L4.1209 14.2623C4.10477 14.2407 4.08863 14.2192 4.07035 14.1945C3.113 12.8721 2.60742 11.3097 2.60742 9.67639C2.60742 5.41762 6.0711 1.95293 10.3286 1.95293C14.3172 1.95293 17.6981 5.06577 18.024 9.03941C18.0412 9.25245 18.0509 9.46657 18.0509 9.67747C18.0509 9.73772 18.0498 9.79691 18.0487 9.86039C17.967 13.423 15.479 16.4487 11.9981 17.2191C11.7324 17.2783 11.4602 17.3235 11.1892 17.3525C10.9073 17.3848 10.618 17.4009 10.3308 17.4009C9.3078 17.4009 8.31388 17.203 7.37482 16.8113C7.27048 16.7693 7.16828 16.7241 7.07255 16.6779L6.93272 16.6101L6.93164 16.6079Z" fill="#050505"/>
</svg>
